<svg xmlns="http://www.w3.org/2000/svg" width="900" height="500" viewBox="0 0 900 500">
<rect width="100%" height="100%" fill="#ffffff"/>
<text x="40" y="48" font-family="Arial" font-size="26" font-weight="700" fill="#1f2937">Dataset overview</text><rect x="50" y="115" width="190" height="105" fill="#f8fafc" stroke="#cbd5e1" rx="6"/><text x="66" y="147" font-family="Arial" font-size="14" fill="#6b7280">Hotels</text><text x="66" y="182" font-family="Arial" font-size="25" font-weight="700" fill="#1f2937">2,370</text><text x="66" y="206" font-family="Arial" font-size="12" fill="#6b7280">TripAdvisor hotels</text><rect x="264" y="115" width="190" height="105" fill="#f8fafc" stroke="#cbd5e1" rx="6"/><text x="280" y="147" font-family="Arial" font-size="14" fill="#6b7280">Registered members</text><text x="280" y="182" font-family="Arial" font-size="25" font-weight="700" fill="#1f2937">150,961</text><text x="280" y="206" font-family="Arial" font-size="12" fill="#6b7280">member table</text><rect x="478" y="115" width="190" height="105" fill="#f8fafc" stroke="#cbd5e1" rx="6"/><text x="494" y="147" font-family="Arial" font-size="14" fill="#6b7280">Users with reviews</text><text x="494" y="182" font-family="Arial" font-size="25" font-weight="700" fill="#1f2937">150,527</text><text x="494" y="206" font-family="Arial" font-size="12" fill="#6b7280">review table</text><rect x="692" y="115" width="190" height="105" fill="#f8fafc" stroke="#cbd5e1" rx="6"/><text x="708" y="147" font-family="Arial" font-size="14" fill="#6b7280">Reviews</text><text x="708" y="182" font-family="Arial" font-size="25" font-weight="700" fill="#1f2937">165,843</text><text x="708" y="206" font-family="Arial" font-size="12" fill="#6b7280">enriched rows</text><rect x="50" y="244" width="190" height="105" fill="#f8fafc" stroke="#cbd5e1" rx="6"/><text x="66" y="276" font-family="Arial" font-size="14" fill="#6b7280">Hotel-feature rows</text><text x="66" y="311" font-family="Arial" font-size="25" font-weight="700" fill="#1f2937">29,053</text><text x="66" y="335" font-family="Arial" font-size="12" fill="#6b7280">rebuilt table</text><rect x="264" y="244" width="190" height="105" fill="#f8fafc" stroke="#cbd5e1" rx="6"/><text x="280" y="276" font-family="Arial" font-size="14" fill="#6b7280">Distinct features</text><text x="280" y="311" font-family="Arial" font-size="25" font-weight="700" fill="#1f2937">28</text><text x="280" y="335" font-family="Arial" font-size="12" fill="#6b7280">rebuilt table</text>
</svg>
