<svg xmlns="http://www.w3.org/2000/svg" width="900" height="500" viewBox="0 0 900 500">
<rect width="100%" height="100%" fill="#ffffff"/>
<text x="40" y="48" font-family="Arial" font-size="26" font-weight="700" fill="#1f2937">Hotels by city</text><line x1="90" y1="405.0" x2="850" y2="405.0" stroke="#e5e7eb" stroke-width="1"/><text x="78" y="409.0" text-anchor="end" font-family="Arial" font-size="11" fill="#6b7280">0</text><line x1="90" y1="345.0" x2="850" y2="345.0" stroke="#e5e7eb" stroke-width="1"/><text x="78" y="349.0" text-anchor="end" font-family="Arial" font-size="11" fill="#6b7280">203</text><line x1="90" y1="285.0" x2="850" y2="285.0" stroke="#e5e7eb" stroke-width="1"/><text x="78" y="289.0" text-anchor="end" font-family="Arial" font-size="11" fill="#6b7280">406</text><line x1="90" y1="225.0" x2="850" y2="225.0" stroke="#e5e7eb" stroke-width="1"/><text x="78" y="229.0" text-anchor="end" font-family="Arial" font-size="11" fill="#6b7280">610</text><line x1="90" y1="165.0" x2="850" y2="165.0" stroke="#e5e7eb" stroke-width="1"/><text x="78" y="169.0" text-anchor="end" font-family="Arial" font-size="11" fill="#6b7280">813</text><line x1="90" y1="105.0" x2="850" y2="105.0" stroke="#e5e7eb" stroke-width="1"/><text x="78" y="109.0" text-anchor="end" font-family="Arial" font-size="11" fill="#6b7280">1,016</text><rect x="90.0" y="105.0" width="118.3" height="300.0" fill="#2563eb" rx="3"/><text x="149.2" y="98.0" text-anchor="middle" font-family="Arial" font-size="12" fill="#1f2937">1,016</text><text x="149.2" y="429.0" text-anchor="middle" font-family="Arial" font-size="11" fill="#1f2937">London</text><rect x="218.3" y="286.0" width="118.3" height="119.0" fill="#059669" rx="3"/><text x="277.5" y="279.0" text-anchor="middle" font-family="Arial" font-size="12" fill="#1f2937">403</text><text x="277.5" y="429.0" text-anchor="middle" font-family="Arial" font-size="11" fill="#1f2937">New York</text><rect x="346.7" y="296.6" width="118.3" height="108.4" fill="#dc2626" rx="3"/><text x="405.8" y="289.6" text-anchor="middle" font-family="Arial" font-size="12" fill="#1f2937">367</text><text x="405.8" y="429.0" text-anchor="middle" font-family="Arial" font-size="11" fill="#1f2937">Hong Kong</text><rect x="475.0" y="323.8" width="118.3" height="81.2" fill="#7c3aed" rx="3"/><text x="534.2" y="316.8" text-anchor="middle" font-family="Arial" font-size="12" fill="#1f2937">275</text><text x="534.2" y="429.0" text-anchor="middle" font-family="Arial" font-size="11" fill="#1f2937">Singapore</text><rect x="603.3" y="356.6" width="118.3" height="48.4" fill="#d97706" rx="3"/><text x="662.5" y="349.6" text-anchor="middle" font-family="Arial" font-size="12" fill="#1f2937">164</text><text x="662.5" y="429.0" text-anchor="middle" font-family="Arial" font-size="11" fill="#1f2937">Dublin</text><rect x="731.7" y="362.2" width="118.3" height="42.8" fill="#0891b2" rx="3"/><text x="790.8" y="355.2" text-anchor="middle" font-family="Arial" font-size="12" fill="#1f2937">145</text><text x="790.8" y="429.0" text-anchor="middle" font-family="Arial" font-size="11" fill="#1f2937">Chicago</text>
</svg>
