<svg xmlns="http://www.w3.org/2000/svg" width="900" height="500" viewBox="0 0 900 500">
<rect width="100%" height="100%" fill="#ffffff"/>
<text x="40" y="48" font-family="Arial" font-size="26" font-weight="700" fill="#1f2937">Hotel review count distribution</text><text x="40" y="76" font-family="Arial" font-size="14" fill="#6b7280">TripAdvisor metadata review counts</text><line x1="90" y1="405.0" x2="850" y2="405.0" stroke="#e5e7eb" stroke-width="1"/><text x="78" y="409.0" text-anchor="end" font-family="Arial" font-size="11" fill="#6b7280">0</text><line x1="90" y1="345.0" x2="850" y2="345.0" stroke="#e5e7eb" stroke-width="1"/><text x="78" y="349.0" text-anchor="end" font-family="Arial" font-size="11" fill="#6b7280">160</text><line x1="90" y1="285.0" x2="850" y2="285.0" stroke="#e5e7eb" stroke-width="1"/><text x="78" y="289.0" text-anchor="end" font-family="Arial" font-size="11" fill="#6b7280">320</text><line x1="90" y1="225.0" x2="850" y2="225.0" stroke="#e5e7eb" stroke-width="1"/><text x="78" y="229.0" text-anchor="end" font-family="Arial" font-size="11" fill="#6b7280">479</text><line x1="90" y1="165.0" x2="850" y2="165.0" stroke="#e5e7eb" stroke-width="1"/><text x="78" y="169.0" text-anchor="end" font-family="Arial" font-size="11" fill="#6b7280">639</text><line x1="90" y1="105.0" x2="850" y2="105.0" stroke="#e5e7eb" stroke-width="1"/><text x="78" y="109.0" text-anchor="end" font-family="Arial" font-size="11" fill="#6b7280">799</text><rect x="90.0" y="105.0" width="100.0" height="300.0" fill="#2563eb" rx="3"/><text x="140.0" y="98.0" text-anchor="middle" font-family="Arial" font-size="12" fill="#1f2937">799</text><text x="140.0" y="429.0" text-anchor="middle" font-family="Arial" font-size="11" fill="#1f2937">0-100</text><rect x="200.0" y="256.7" width="100.0" height="148.3" fill="#2563eb" rx="3"/><text x="250.0" y="249.7" text-anchor="middle" font-family="Arial" font-size="12" fill="#1f2937">395</text><text x="250.0" y="429.0" text-anchor="middle" font-family="Arial" font-size="11" fill="#1f2937">100-250</text><rect x="310.0" y="240.2" width="100.0" height="164.8" fill="#2563eb" rx="3"/><text x="360.0" y="233.2" text-anchor="middle" font-family="Arial" font-size="12" fill="#1f2937">439</text><text x="360.0" y="429.0" text-anchor="middle" font-family="Arial" font-size="11" fill="#1f2937">250-500</text><rect x="420.0" y="239.4" width="100.0" height="165.6" fill="#2563eb" rx="3"/><text x="470.0" y="232.4" text-anchor="middle" font-family="Arial" font-size="12" fill="#1f2937">441</text><text x="470.0" y="429.0" text-anchor="middle" font-family="Arial" font-size="11" fill="#1f2937">500-1000</text><rect x="530.0" y="317.9" width="100.0" height="87.1" fill="#2563eb" rx="3"/><text x="580.0" y="310.9" text-anchor="middle" font-family="Arial" font-size="12" fill="#1f2937">232</text><text x="580.0" y="429.0" text-anchor="middle" font-family="Arial" font-size="11" fill="#1f2937">1000-2000</text><rect x="640.0" y="383.6" width="100.0" height="21.4" fill="#2563eb" rx="3"/><text x="690.0" y="376.6" text-anchor="middle" font-family="Arial" font-size="12" fill="#1f2937">57</text><text x="690.0" y="429.0" text-anchor="middle" font-family="Arial" font-size="11" fill="#1f2937">2000-4000</text><rect x="750.0" y="402.4" width="100.0" height="2.6" fill="#2563eb" rx="3"/><text x="800.0" y="395.4" text-anchor="middle" font-family="Arial" font-size="12" fill="#1f2937">7</text><text x="800.0" y="429.0" text-anchor="middle" font-family="Arial" font-size="11" fill="#1f2937">4000-7000</text>
</svg>
