<svg xmlns="http://www.w3.org/2000/svg" width="900" height="500" viewBox="0 0 900 500">
<rect width="100%" height="100%" fill="#ffffff"/>
<text x="40" y="48" font-family="Arial" font-size="26" font-weight="700" fill="#1f2937">Hotel average rating distribution</text><text x="40" y="76" font-family="Arial" font-size="14" fill="#6b7280">Metadata average rating</text><line x1="90" y1="405.0" x2="850" y2="405.0" stroke="#e5e7eb" stroke-width="1"/><text x="78" y="409.0" text-anchor="end" font-family="Arial" font-size="11" fill="#6b7280">0</text><line x1="90" y1="345.0" x2="850" y2="345.0" stroke="#e5e7eb" stroke-width="1"/><text x="78" y="349.0" text-anchor="end" font-family="Arial" font-size="11" fill="#6b7280">141</text><line x1="90" y1="285.0" x2="850" y2="285.0" stroke="#e5e7eb" stroke-width="1"/><text x="78" y="289.0" text-anchor="end" font-family="Arial" font-size="11" fill="#6b7280">282</text><line x1="90" y1="225.0" x2="850" y2="225.0" stroke="#e5e7eb" stroke-width="1"/><text x="78" y="229.0" text-anchor="end" font-family="Arial" font-size="11" fill="#6b7280">424</text><line x1="90" y1="165.0" x2="850" y2="165.0" stroke="#e5e7eb" stroke-width="1"/><text x="78" y="169.0" text-anchor="end" font-family="Arial" font-size="11" fill="#6b7280">565</text><line x1="90" y1="105.0" x2="850" y2="105.0" stroke="#e5e7eb" stroke-width="1"/><text x="78" y="109.0" text-anchor="end" font-family="Arial" font-size="11" fill="#6b7280">706</text><rect x="90.0" y="405.0" width="100.0" height="0.0" fill="#2563eb" rx="3"/><text x="140.0" y="398.0" text-anchor="middle" font-family="Arial" font-size="12" fill="#1f2937">0</text><text x="140.0" y="429.0" text-anchor="middle" font-family="Arial" font-size="11" fill="#1f2937">0-1</text><rect x="200.0" y="371.0" width="100.0" height="34.0" fill="#2563eb" rx="3"/><text x="250.0" y="364.0" text-anchor="middle" font-family="Arial" font-size="12" fill="#1f2937">80</text><text x="250.0" y="429.0" text-anchor="middle" font-family="Arial" font-size="11" fill="#1f2937">1-2</text><rect x="310.0" y="289.4" width="100.0" height="115.6" fill="#2563eb" rx="3"/><text x="360.0" y="282.4" text-anchor="middle" font-family="Arial" font-size="12" fill="#1f2937">272</text><text x="360.0" y="429.0" text-anchor="middle" font-family="Arial" font-size="11" fill="#1f2937">2-3</text><rect x="420.0" y="289.8" width="100.0" height="115.2" fill="#2563eb" rx="3"/><text x="470.0" y="282.8" text-anchor="middle" font-family="Arial" font-size="12" fill="#1f2937">271</text><text x="470.0" y="429.0" text-anchor="middle" font-family="Arial" font-size="11" fill="#1f2937">3-3.5</text><rect x="530.0" y="187.4" width="100.0" height="217.6" fill="#2563eb" rx="3"/><text x="580.0" y="180.4" text-anchor="middle" font-family="Arial" font-size="12" fill="#1f2937">512</text><text x="580.0" y="429.0" text-anchor="middle" font-family="Arial" font-size="11" fill="#1f2937">3.5-4</text><rect x="640.0" y="105.0" width="100.0" height="300.0" fill="#2563eb" rx="3"/><text x="690.0" y="98.0" text-anchor="middle" font-family="Arial" font-size="12" fill="#1f2937">706</text><text x="690.0" y="429.0" text-anchor="middle" font-family="Arial" font-size="11" fill="#1f2937">4-4.5</text><rect x="750.0" y="181.5" width="100.0" height="223.5" fill="#2563eb" rx="3"/><text x="800.0" y="174.5" text-anchor="middle" font-family="Arial" font-size="12" fill="#1f2937">526</text><text x="800.0" y="429.0" text-anchor="middle" font-family="Arial" font-size="11" fill="#1f2937">4.5-5</text>
</svg>
