<svg xmlns="http://www.w3.org/2000/svg" width="900" height="500" viewBox="0 0 900 500">
<rect width="100%" height="100%" fill="#ffffff"/>
<text x="40" y="48" font-family="Arial" font-size="26" font-weight="700" fill="#1f2937">Related hotels proxy summary</text><text x="40" y="76" font-family="Arial" font-size="14" fill="#6b7280">99.41% of resolved non-self links are same-city</text><line x1="90" y1="405.0" x2="850" y2="405.0" stroke="#e5e7eb" stroke-width="1"/><text x="78" y="409.0" text-anchor="end" font-family="Arial" font-size="11" fill="#6b7280">0</text><line x1="90" y1="345.0" x2="850" y2="345.0" stroke="#e5e7eb" stroke-width="1"/><text x="78" y="349.0" text-anchor="end" font-family="Arial" font-size="11" fill="#6b7280">4,053</text><line x1="90" y1="285.0" x2="850" y2="285.0" stroke="#e5e7eb" stroke-width="1"/><text x="78" y="289.0" text-anchor="end" font-family="Arial" font-size="11" fill="#6b7280">8,106</text><line x1="90" y1="225.0" x2="850" y2="225.0" stroke="#e5e7eb" stroke-width="1"/><text x="78" y="229.0" text-anchor="end" font-family="Arial" font-size="11" fill="#6b7280">12,159</text><line x1="90" y1="165.0" x2="850" y2="165.0" stroke="#e5e7eb" stroke-width="1"/><text x="78" y="169.0" text-anchor="end" font-family="Arial" font-size="11" fill="#6b7280">16,212</text><line x1="90" y1="105.0" x2="850" y2="105.0" stroke="#e5e7eb" stroke-width="1"/><text x="78" y="109.0" text-anchor="end" font-family="Arial" font-size="11" fill="#6b7280">20,265</text><rect x="90.0" y="105.0" width="375.0" height="300.0" fill="#2563eb" rx="3"/><text x="277.5" y="98.0" text-anchor="middle" font-family="Arial" font-size="12" fill="#1f2937">20,265</text><text x="277.5" y="429.0" text-anchor="middle" font-family="Arial" font-size="11" fill="#1f2937">Local links</text><rect x="475.0" y="106.8" width="375.0" height="298.2" fill="#059669" rx="3"/><text x="662.5" y="99.8" text-anchor="middle" font-family="Arial" font-size="12" fill="#1f2937">20,146</text><text x="662.5" y="429.0" text-anchor="middle" font-family="Arial" font-size="11" fill="#1f2937">Same city links</text>
</svg>
