<svg xmlns="http://www.w3.org/2000/svg" width="900" height="230" viewBox="0 0 900 230">
<rect width="100%" height="100%" fill="#ffffff"/>
<text x="40" y="48" font-family="Arial" font-size="26" font-weight="700" fill="#1f2937">Pipeline overview</text><rect x="50" y="115" width="145" height="80" fill="#f8fafc" stroke="#2563eb" stroke-width="2" rx="6"/><text x="122.5" y="147" text-anchor="middle" font-family="Arial" font-size="14" font-weight="700" fill="#1f2937">SQL</text><text x="122.5" y="165" text-anchor="middle" font-family="Arial" font-size="14" font-weight="700" fill="#1f2937">dump</text><line x1="201" y1="155.0" x2="217" y2="155.0" stroke="#6b7280" stroke-width="2"/><polygon points="217,155.0 207,149.0 207,161.0" fill="#6b7280"/><rect x="225" y="115" width="145" height="80" fill="#f8fafc" stroke="#059669" stroke-width="2" rx="6"/><text x="297.5" y="147" text-anchor="middle" font-family="Arial" font-size="14" font-weight="700" fill="#1f2937">Parquet</text><text x="297.5" y="165" text-anchor="middle" font-family="Arial" font-size="14" font-weight="700" fill="#1f2937">extract</text><line x1="376" y1="155.0" x2="392" y2="155.0" stroke="#6b7280" stroke-width="2"/><polygon points="392,155.0 382,149.0 382,161.0" fill="#6b7280"/><rect x="400" y="115" width="145" height="80" fill="#f8fafc" stroke="#dc2626" stroke-width="2" rx="6"/><text x="472.5" y="147" text-anchor="middle" font-family="Arial" font-size="14" font-weight="700" fill="#1f2937">LLM sentiment</text><text x="472.5" y="165" text-anchor="middle" font-family="Arial" font-size="14" font-weight="700" fill="#1f2937">enrichment</text><line x1="551" y1="155.0" x2="567" y2="155.0" stroke="#6b7280" stroke-width="2"/><polygon points="567,155.0 557,149.0 557,161.0" fill="#6b7280"/><rect x="575" y="115" width="145" height="80" fill="#f8fafc" stroke="#7c3aed" stroke-width="2" rx="6"/><text x="647.5" y="147" text-anchor="middle" font-family="Arial" font-size="14" font-weight="700" fill="#1f2937">Hotel/user</text><text x="647.5" y="165" text-anchor="middle" font-family="Arial" font-size="14" font-weight="700" fill="#1f2937">profiles</text><line x1="726" y1="155.0" x2="742" y2="155.0" stroke="#6b7280" stroke-width="2"/><polygon points="742,155.0 732,149.0 732,161.0" fill="#6b7280"/><rect x="750" y="115" width="145" height="80" fill="#f8fafc" stroke="#d97706" stroke-width="2" rx="6"/><text x="822.5" y="147" text-anchor="middle" font-family="Arial" font-size="14" font-weight="700" fill="#1f2937">Offline</text><text x="822.5" y="165" text-anchor="middle" font-family="Arial" font-size="14" font-weight="700" fill="#1f2937">evaluation</text>
</svg>
