<svg xmlns="http://www.w3.org/2000/svg" width="900" height="500" viewBox="0 0 900 500">
<rect width="100%" height="100%" fill="#ffffff"/>
<text x="40" y="48" font-family="Arial" font-size="26" font-weight="700" fill="#1f2937">Non-personalized model comparison</text>
<line x1="85" y1="395.0" x2="845" y2="395.0" stroke="#e5e7eb" stroke-width="1"/>
<text x="73" y="399.0" text-anchor="end" font-family="Arial" font-size="11" fill="#6b7280">0.00</text>
<line x1="85" y1="334.0" x2="845" y2="334.0" stroke="#e5e7eb" stroke-width="1"/>
<text x="73" y="338.0" text-anchor="end" font-family="Arial" font-size="11" fill="#6b7280">0.17</text>
<line x1="85" y1="273.0" x2="845" y2="273.0" stroke="#e5e7eb" stroke-width="1"/>
<text x="73" y="277.0" text-anchor="end" font-family="Arial" font-size="11" fill="#6b7280">0.34</text>
<line x1="85" y1="212.0" x2="845" y2="212.0" stroke="#e5e7eb" stroke-width="1"/>
<text x="73" y="216.0" text-anchor="end" font-family="Arial" font-size="11" fill="#6b7280">0.51</text>
<line x1="85" y1="151.0" x2="845" y2="151.0" stroke="#e5e7eb" stroke-width="1"/>
<text x="73" y="155.0" text-anchor="end" font-family="Arial" font-size="11" fill="#6b7280">0.68</text>
<line x1="85" y1="90.0" x2="845" y2="90.0" stroke="#e5e7eb" stroke-width="1"/>
<text x="73" y="94.0" text-anchor="end" font-family="Arial" font-size="11" fill="#6b7280">0.85</text>
<rect x="99.0" y="352.2" width="71.1" height="42.8" fill="#2563eb" rx="3"/>
<text x="134.6" y="345.2" text-anchor="middle" font-family="Arial" font-size="11" fill="#1f2937">0.1192</text>
<rect x="176.1" y="356.4" width="71.1" height="38.6" fill="#059669" rx="3"/>
<text x="211.7" y="349.4" text-anchor="middle" font-family="Arial" font-size="11" fill="#1f2937">0.1076</text>
<rect x="253.2" y="366.2" width="71.1" height="28.8" fill="#dc2626" rx="3"/>
<text x="288.8" y="359.2" text-anchor="middle" font-family="Arial" font-size="11" fill="#1f2937">0.0804</text>
<text x="211.7" y="423" text-anchor="middle" font-family="Arial" font-size="12" fill="#1f2937">Rel.@10</text>
<rect x="352.3" y="222.4" width="71.1" height="172.6" fill="#2563eb" rx="3"/>
<text x="387.9" y="215.4" text-anchor="middle" font-family="Arial" font-size="11" fill="#1f2937">0.4810</text>
<rect x="429.4" y="213.5" width="71.1" height="181.5" fill="#059669" rx="3"/>
<text x="465.0" y="206.5" text-anchor="middle" font-family="Arial" font-size="11" fill="#1f2937">0.5059</text>
<rect x="506.6" y="308.8" width="71.1" height="86.2" fill="#dc2626" rx="3"/>
<text x="542.1" y="301.8" text-anchor="middle" font-family="Arial" font-size="11" fill="#1f2937">0.2401</text>
<text x="465.0" y="423" text-anchor="middle" font-family="Arial" font-size="12" fill="#1f2937">Cat. cov.</text>
<rect x="605.7" y="115.3" width="71.1" height="279.7" fill="#2563eb" rx="3"/>
<text x="641.2" y="108.3" text-anchor="middle" font-family="Arial" font-size="11" fill="#1f2937">0.7795</text>
<rect x="682.8" y="115.8" width="71.1" height="279.2" fill="#059669" rx="3"/>
<text x="718.3" y="108.8" text-anchor="middle" font-family="Arial" font-size="11" fill="#1f2937">0.7780</text>
<rect x="759.9" y="97.9" width="71.1" height="297.1" fill="#dc2626" rx="3"/>
<text x="795.4" y="90.9" text-anchor="middle" font-family="Arial" font-size="11" fill="#1f2937">0.8281</text>
<text x="718.3" y="423" text-anchor="middle" font-family="Arial" font-size="12" fill="#1f2937">Sent. align.</text>
<rect x="40" y="446" width="14" height="14" fill="#2563eb" rx="2"/>
<text x="62" y="458" font-family="Arial" font-size="13" fill="#1f2937">Case-based</text>
<rect x="250" y="446" width="14" height="14" fill="#059669" rx="2"/>
<text x="272" y="458" font-family="Arial" font-size="13" fill="#1f2937">Frequency-based</text>
<rect x="460" y="446" width="14" height="14" fill="#dc2626" rx="2"/>
<text x="482" y="458" font-family="Arial" font-size="13" fill="#1f2937">Sentiment-enhanced</text>
</svg>