<svg xmlns="http://www.w3.org/2000/svg" width="900" height="500" viewBox="0 0 900 500">
<rect width="100%" height="100%" fill="#ffffff"/>
<text x="40" y="48" font-family="Arial" font-size="26" font-weight="700" fill="#1f2937">Personalized model comparison</text>
<line x1="85" y1="395.0" x2="845" y2="395.0" stroke="#e5e7eb" stroke-width="1"/>
<text x="73" y="399.0" text-anchor="end" font-family="Arial" font-size="11" fill="#6b7280">0.00</text>
<line x1="85" y1="334.0" x2="845" y2="334.0" stroke="#e5e7eb" stroke-width="1"/>
<text x="73" y="338.0" text-anchor="end" font-family="Arial" font-size="11" fill="#6b7280">0.01</text>
<line x1="85" y1="273.0" x2="845" y2="273.0" stroke="#e5e7eb" stroke-width="1"/>
<text x="73" y="277.0" text-anchor="end" font-family="Arial" font-size="11" fill="#6b7280">0.02</text>
<line x1="85" y1="212.0" x2="845" y2="212.0" stroke="#e5e7eb" stroke-width="1"/>
<text x="73" y="216.0" text-anchor="end" font-family="Arial" font-size="11" fill="#6b7280">0.02</text>
<line x1="85" y1="151.0" x2="845" y2="151.0" stroke="#e5e7eb" stroke-width="1"/>
<text x="73" y="155.0" text-anchor="end" font-family="Arial" font-size="11" fill="#6b7280">0.03</text>
<line x1="85" y1="90.0" x2="845" y2="90.0" stroke="#e5e7eb" stroke-width="1"/>
<text x="73" y="94.0" text-anchor="end" font-family="Arial" font-size="11" fill="#6b7280">0.04</text>
<rect x="200.0" y="104.5" width="72.0" height="290.5" fill="#2563eb" rx="3"/>
<text x="236.0" y="97.5" text-anchor="middle" font-family="Arial" font-size="11" fill="#1f2937">0.0381</text>
<rect x="278.0" y="224.2" width="72.0" height="170.8" fill="#059669" rx="3"/>
<text x="314.0" y="217.2" text-anchor="middle" font-family="Arial" font-size="11" fill="#1f2937">0.0224</text>
<text x="275.0" y="423" text-anchor="middle" font-family="Arial" font-size="12" fill="#1f2937">HitRate@10</text>
<rect x="580.0" y="309.6" width="72.0" height="85.4" fill="#2563eb" rx="3"/>
<text x="616.0" y="302.6" text-anchor="middle" font-family="Arial" font-size="11" fill="#1f2937">0.0112</text>
<rect x="658.0" y="369.1" width="72.0" height="25.9" fill="#059669" rx="3"/>
<text x="694.0" y="362.1" text-anchor="middle" font-family="Arial" font-size="11" fill="#1f2937">0.0034</text>
<text x="655.0" y="423" text-anchor="middle" font-family="Arial" font-size="12" fill="#1f2937">MRR</text>
<rect x="40" y="446" width="14" height="14" fill="#2563eb" rx="2"/>
<text x="62" y="458" font-family="Arial" font-size="13" fill="#1f2937">Frequency</text>
<rect x="250" y="446" width="14" height="14" fill="#059669" rx="2"/>
<text x="272" y="458" font-family="Arial" font-size="13" fill="#1f2937">Sentiment</text>
</svg>